<?xml version="1.0" encoding="UTF-8" standalone="no"?>
<!DOCTYPE svg PUBLIC "-//W3C//DTD SVG 1.1//EN"
 "http://www.w3.org/Graphics/SVG/1.1/DTD/svg11.dtd">
<!-- Generated by graphviz version 9.0.0 (0)
 -->
<!-- Title: 2023&#45;11&#45;23 Pages: 1 -->
<svg width="142pt" height="736pt"
 viewBox="0.00 0.00 142.25 735.50" xmlns="http://www.w3.org/2000/svg" xmlns:xlink="http://www.w3.org/1999/xlink">
<g id="graph0" class="graph" transform="scale(1 1) rotate(0) translate(4 731.5)">
<title>2023&#45;11&#45;23</title>
<polygon fill="white" stroke="none" points="-4,4 -4,-731.5 138.25,-731.5 138.25,4 -4,4"/>
<!-- 11:00 -->
<g id="node1" class="node">
<title>11:00</title>
<text text-anchor="middle" x="16.88" y="-705.95" font-family="Times,serif" font-size="14.00">11:00</text>
</g>
<!-- 11:45 -->
<g id="node2" class="node">
<title>11:45</title>
<text text-anchor="middle" x="16.88" y="-614.45" font-family="Times,serif" font-size="14.00">11:45</text>
</g>
<!-- 11:00&#45;&gt;11:45 -->
<g id="edge1" class="edge">
<title>11:00&#45;&gt;11:45</title>
<path fill="none" stroke="black" d="M16.88,-699.92C16.88,-685.99 16.88,-658.09 16.88,-638.98"/>
<polygon fill="black" stroke="black" points="20.38,-639.2 16.88,-629.2 13.38,-639.2 20.38,-639.2"/>
<text text-anchor="middle" x="54.38" y="-660.2" font-family="Times,serif" font-size="14.00">Émergence</text>
</g>
<!-- Réveil -->
<g id="node11" class="node">
<title>Réveil</title>
<polygon fill="none" stroke="black" points="126.5,-727.5 69.25,-727.5 69.25,-691.5 126.5,-691.5 126.5,-727.5"/>
<text text-anchor="middle" x="97.88" y="-705.95" font-family="Times,serif" font-size="14.00">Réveil</text>
</g>
<!-- 11:00&#45;&gt;Réveil -->
<g id="edge10" class="edge">
<title>11:00&#45;&gt;Réveil</title>
<path fill="none" stroke="black" d="M33.64,-709.5C41.6,-709.5 49.56,-709.5 57.52,-709.5"/>
<polygon fill="black" stroke="black" points="57.26,-713 67.26,-709.5 57.26,-706 57.26,-713"/>
</g>
<!-- 11:50 -->
<g id="node3" class="node">
<title>11:50</title>
<text text-anchor="middle" x="16.88" y="-531.2" font-family="Times,serif" font-size="14.00">11:50</text>
</g>
<!-- 11:45&#45;&gt;11:50 -->
<g id="edge2" class="edge">
<title>11:45&#45;&gt;11:50</title>
<path fill="none" stroke="black" d="M16.88,-608.3C16.88,-595.84 16.88,-572.55 16.88,-555.71"/>
<polygon fill="black" stroke="black" points="20.38,-555.9 16.88,-545.9 13.38,-555.9 20.38,-555.9"/>
<text text-anchor="middle" x="31.5" y="-568.7" font-family="Times,serif" font-size="14.00">Café</text>
</g>
<!-- Debout -->
<g id="node12" class="node">
<title>Debout</title>
<polygon fill="none" stroke="black" points="134.25,-636 69.5,-636 69.5,-600 134.25,-600 134.25,-636"/>
<text text-anchor="middle" x="101.88" y="-614.45" font-family="Times,serif" font-size="14.00">Debout</text>
</g>
<!-- 11:45&#45;&gt;Debout -->
<g id="edge11" class="edge">
<title>11:45&#45;&gt;Debout</title>
<path fill="none" stroke="black" d="M33.48,-618C41.53,-618 49.58,-618 57.63,-618"/>
<polygon fill="black" stroke="black" points="57.5,-621.5 67.5,-618 57.5,-614.5 57.5,-621.5"/>
</g>
<!-- 13:40 -->
<g id="node4" class="node">
<title>13:40</title>
<text text-anchor="middle" x="16.88" y="-456.2" font-family="Times,serif" font-size="14.00">13:40</text>
</g>
<!-- 11:50&#45;&gt;13:40 -->
<g id="edge3" class="edge">
<title>11:50&#45;&gt;13:40</title>
<path fill="none" stroke="black" d="M16.88,-525.09C16.88,-514.22 16.88,-495.25 16.88,-480.72"/>
<polygon fill="black" stroke="black" points="20.38,-480.91 16.88,-470.91 13.38,-480.91 20.38,-480.91"/>
<text text-anchor="middle" x="45" y="-493.7" font-family="Times,serif" font-size="14.00">✓ Boulot</text>
</g>
<!-- 14:00 -->
<g id="node5" class="node">
<title>14:00</title>
<text text-anchor="middle" x="16.88" y="-381.2" font-family="Times,serif" font-size="14.00">14:00</text>
</g>
<!-- 13:40&#45;&gt;14:00 -->
<g id="edge4" class="edge">
<title>13:40&#45;&gt;14:00</title>
<path fill="none" stroke="black" d="M16.88,-450.09C16.88,-439.22 16.88,-420.25 16.88,-405.72"/>
<polygon fill="black" stroke="black" points="20.38,-405.91 16.88,-395.91 13.38,-405.91 20.38,-405.91"/>
<text text-anchor="middle" x="36.38" y="-418.7" font-family="Times,serif" font-size="14.00">Repas</text>
</g>
<!-- 14:45 -->
<g id="node6" class="node">
<title>14:45</title>
<text text-anchor="middle" x="16.88" y="-306.2" font-family="Times,serif" font-size="14.00">14:45</text>
</g>
<!-- 14:00&#45;&gt;14:45 -->
<g id="edge5" class="edge">
<title>14:00&#45;&gt;14:45</title>
<path fill="none" stroke="black" d="M16.88,-375.09C16.88,-364.22 16.88,-345.25 16.88,-330.72"/>
<polygon fill="black" stroke="black" points="20.38,-330.91 16.88,-320.91 13.38,-330.91 20.38,-330.91"/>
<text text-anchor="middle" x="45" y="-343.7" font-family="Times,serif" font-size="14.00">✓ Boulot</text>
</g>
<!-- 15:00 -->
<g id="node7" class="node">
<title>15:00</title>
<text text-anchor="middle" x="16.88" y="-231.2" font-family="Times,serif" font-size="14.00">15:00</text>
</g>
<!-- 14:45&#45;&gt;15:00 -->
<g id="edge6" class="edge">
<title>14:45&#45;&gt;15:00</title>
<path fill="none" stroke="black" d="M16.88,-300.09C16.88,-289.22 16.88,-270.25 16.88,-255.72"/>
<polygon fill="black" stroke="black" points="20.38,-255.91 16.88,-245.91 13.38,-255.91 20.38,-255.91"/>
<text text-anchor="middle" x="42.38" y="-268.7" font-family="Times,serif" font-size="14.00">Discord</text>
</g>
<!-- 16:40 -->
<g id="node8" class="node">
<title>16:40</title>
<text text-anchor="middle" x="16.88" y="-156.2" font-family="Times,serif" font-size="14.00">16:40</text>
</g>
<!-- 15:00&#45;&gt;16:40 -->
<g id="edge7" class="edge">
<title>15:00&#45;&gt;16:40</title>
<path fill="none" stroke="black" d="M16.88,-225.09C16.88,-214.22 16.88,-195.25 16.88,-180.72"/>
<polygon fill="black" stroke="black" points="20.38,-180.91 16.88,-170.91 13.38,-180.91 20.38,-180.91"/>
<text text-anchor="middle" x="45" y="-193.7" font-family="Times,serif" font-size="14.00">✓ Boulot</text>
</g>
<!-- 18:40 -->
<g id="node9" class="node">
<title>18:40</title>
<text text-anchor="middle" x="16.88" y="-81.2" font-family="Times,serif" font-size="14.00">18:40</text>
</g>
<!-- 16:40&#45;&gt;18:40 -->
<g id="edge8" class="edge">
<title>16:40&#45;&gt;18:40</title>
<path fill="none" stroke="black" d="M16.88,-150.09C16.88,-139.22 16.88,-120.25 16.88,-105.72"/>
<polygon fill="black" stroke="black" points="20.38,-105.91 16.88,-95.91 13.38,-105.91 20.38,-105.91"/>
<text text-anchor="middle" x="59.62" y="-118.7" font-family="Times,serif" font-size="14.00">HearthStone</text>
</g>
<!-- 22:15 -->
<g id="node10" class="node">
<title>22:15</title>
<text text-anchor="middle" x="16.88" y="-6.2" font-family="Times,serif" font-size="14.00">22:15</text>
</g>
<!-- 18:40&#45;&gt;22:15 -->
<g id="edge9" class="edge">
<title>18:40&#45;&gt;22:15</title>
<path fill="none" stroke="black" d="M16.88,-75.09C16.88,-64.22 16.88,-45.25 16.88,-30.72"/>
<polygon fill="black" stroke="black" points="20.38,-30.91 16.88,-20.91 13.38,-30.91 20.38,-30.91"/>
<text text-anchor="middle" x="45" y="-43.7" font-family="Times,serif" font-size="14.00">✓ Boulot</text>
</g>
</g>
</svg>
