<?xml version="1.0" encoding="UTF-8" standalone="no"?>
<!DOCTYPE svg PUBLIC "-//W3C//DTD SVG 1.1//EN"
 "http://www.w3.org/Graphics/SVG/1.1/DTD/svg11.dtd">
<!-- Generated by graphviz version 9.0.0 (0)
 -->
<!-- Title: 2023&#45;11&#45;22 Pages: 1 -->
<svg width="371pt" height="586pt"
 viewBox="0.00 0.00 371.38 585.50" xmlns="http://www.w3.org/2000/svg" xmlns:xlink="http://www.w3.org/1999/xlink">
<g id="graph0" class="graph" transform="scale(1 1) rotate(0) translate(4 581.5)">
<title>2023&#45;11&#45;22</title>
<polygon fill="white" stroke="none" points="-4,4 -4,-581.5 367.38,-581.5 367.38,4 -4,4"/>
<!-- 10:00 -->
<g id="node1" class="node">
<title>10:00</title>
<text text-anchor="middle" x="16.88" y="-555.95" font-family="Times,serif" font-size="14.00">10:00</text>
</g>
<!-- 11:00 -->
<g id="node2" class="node">
<title>11:00</title>
<text text-anchor="middle" x="16.88" y="-464.45" font-family="Times,serif" font-size="14.00">11:00</text>
</g>
<!-- 10:00&#45;&gt;11:00 -->
<g id="edge1" class="edge">
<title>10:00&#45;&gt;11:00</title>
<path fill="none" stroke="black" d="M16.88,-549.92C16.88,-535.99 16.88,-508.09 16.88,-488.98"/>
<polygon fill="black" stroke="black" points="20.38,-489.2 16.88,-479.2 13.38,-489.2 20.38,-489.2"/>
<text text-anchor="middle" x="190.12" y="-510.2" font-family="Times,serif" font-size="14.00">Émergence (*grosses* difficultés à m&#39;endormir hier)</text>
</g>
<!-- Réveil -->
<g id="node9" class="node">
<title>Réveil</title>
<polygon fill="none" stroke="black" points="126.5,-577.5 69.25,-577.5 69.25,-541.5 126.5,-541.5 126.5,-577.5"/>
<text text-anchor="middle" x="97.88" y="-555.95" font-family="Times,serif" font-size="14.00">Réveil</text>
</g>
<!-- 10:00&#45;&gt;Réveil -->
<g id="edge8" class="edge">
<title>10:00&#45;&gt;Réveil</title>
<path fill="none" stroke="black" d="M33.64,-559.5C41.6,-559.5 49.56,-559.5 57.52,-559.5"/>
<polygon fill="black" stroke="black" points="57.26,-563 67.26,-559.5 57.26,-556 57.26,-563"/>
</g>
<!-- 11:30 -->
<g id="node3" class="node">
<title>11:30</title>
<text text-anchor="middle" x="16.88" y="-381.2" font-family="Times,serif" font-size="14.00">11:30</text>
</g>
<!-- 11:00&#45;&gt;11:30 -->
<g id="edge2" class="edge">
<title>11:00&#45;&gt;11:30</title>
<path fill="none" stroke="black" d="M16.88,-458.3C16.88,-445.84 16.88,-422.55 16.88,-405.71"/>
<polygon fill="black" stroke="black" points="20.38,-405.9 16.88,-395.9 13.38,-405.9 20.38,-405.9"/>
<text text-anchor="middle" x="58.5" y="-418.7" font-family="Times,serif" font-size="14.00">Café/P&#39;tit dej</text>
</g>
<!-- Debout -->
<g id="node10" class="node">
<title>Debout</title>
<polygon fill="none" stroke="black" points="134.25,-486 69.5,-486 69.5,-450 134.25,-450 134.25,-486"/>
<text text-anchor="middle" x="101.88" y="-464.45" font-family="Times,serif" font-size="14.00">Debout</text>
</g>
<!-- 11:00&#45;&gt;Debout -->
<g id="edge9" class="edge">
<title>11:00&#45;&gt;Debout</title>
<path fill="none" stroke="black" d="M33.48,-468C41.53,-468 49.58,-468 57.63,-468"/>
<polygon fill="black" stroke="black" points="57.5,-471.5 67.5,-468 57.5,-464.5 57.5,-471.5"/>
</g>
<!-- 13:45 -->
<g id="node4" class="node">
<title>13:45</title>
<text text-anchor="middle" x="16.88" y="-306.2" font-family="Times,serif" font-size="14.00">13:45</text>
</g>
<!-- 11:30&#45;&gt;13:45 -->
<g id="edge3" class="edge">
<title>11:30&#45;&gt;13:45</title>
<path fill="none" stroke="black" d="M16.88,-375.09C16.88,-364.22 16.88,-345.25 16.88,-330.72"/>
<polygon fill="black" stroke="black" points="20.38,-330.91 16.88,-320.91 13.38,-330.91 20.38,-330.91"/>
<text text-anchor="middle" x="45" y="-343.7" font-family="Times,serif" font-size="14.00">✓ Boulot</text>
</g>
<!-- 14:45 -->
<g id="node5" class="node">
<title>14:45</title>
<text text-anchor="middle" x="16.88" y="-231.2" font-family="Times,serif" font-size="14.00">14:45</text>
</g>
<!-- 13:45&#45;&gt;14:45 -->
<g id="edge4" class="edge">
<title>13:45&#45;&gt;14:45</title>
<path fill="none" stroke="black" d="M16.88,-300.09C16.88,-289.22 16.88,-270.25 16.88,-255.72"/>
<polygon fill="black" stroke="black" points="20.38,-255.91 16.88,-245.91 13.38,-255.91 20.38,-255.91"/>
<text text-anchor="middle" x="40.88" y="-268.7" font-family="Times,serif" font-size="14.00">Lasang</text>
</g>
<!-- 14:50 -->
<g id="node6" class="node">
<title>14:50</title>
<text text-anchor="middle" x="16.88" y="-156.2" font-family="Times,serif" font-size="14.00">14:50</text>
</g>
<!-- 14:45&#45;&gt;14:50 -->
<g id="edge5" class="edge">
<title>14:45&#45;&gt;14:50</title>
<path fill="none" stroke="black" d="M16.88,-225.09C16.88,-214.22 16.88,-195.25 16.88,-180.72"/>
<polygon fill="black" stroke="black" points="20.38,-180.91 16.88,-170.91 13.38,-180.91 20.38,-180.91"/>
<text text-anchor="middle" x="31.5" y="-193.7" font-family="Times,serif" font-size="14.00">Café</text>
</g>
<!-- 20:25 -->
<g id="node7" class="node">
<title>20:25</title>
<text text-anchor="middle" x="16.88" y="-81.2" font-family="Times,serif" font-size="14.00">20:25</text>
</g>
<!-- 14:50&#45;&gt;20:25 -->
<g id="edge6" class="edge">
<title>14:50&#45;&gt;20:25</title>
<path fill="none" stroke="black" d="M16.88,-150.09C16.88,-139.22 16.88,-120.25 16.88,-105.72"/>
<polygon fill="black" stroke="black" points="20.38,-105.91 16.88,-95.91 13.38,-105.91 20.38,-105.91"/>
<text text-anchor="middle" x="45" y="-118.7" font-family="Times,serif" font-size="14.00">✓ Boulot</text>
</g>
<!-- 21:45 -->
<g id="node8" class="node">
<title>21:45</title>
<text text-anchor="middle" x="16.88" y="-6.2" font-family="Times,serif" font-size="14.00">21:45</text>
</g>
<!-- 20:25&#45;&gt;21:45 -->
<g id="edge7" class="edge">
<title>20:25&#45;&gt;21:45</title>
<path fill="none" stroke="black" d="M16.88,-75.09C16.88,-64.22 16.88,-45.25 16.88,-30.72"/>
<polygon fill="black" stroke="black" points="20.38,-30.91 16.88,-20.91 13.38,-30.91 20.38,-30.91"/>
<text text-anchor="middle" x="187.5" y="-43.7" font-family="Times,serif" font-size="14.00">Semi boulot (vidéos sur le côté pour décompresser)</text>
</g>
</g>
</svg>
