<?xml version="1.0" encoding="UTF-8" standalone="no"?>
<!DOCTYPE svg PUBLIC "-//W3C//DTD SVG 1.1//EN"
 "http://www.w3.org/Graphics/SVG/1.1/DTD/svg11.dtd">
<!-- Generated by graphviz version 9.0.0 (0)
 -->
<!-- Title: 2023&#45;11&#45;21 Pages: 1 -->
<svg width="644pt" height="1325pt"
 viewBox="0.00 0.00 644.12 1325.00" xmlns="http://www.w3.org/2000/svg" xmlns:xlink="http://www.w3.org/1999/xlink">
<g id="graph0" class="graph" transform="scale(1 1) rotate(0) translate(4 1321)">
<title>2023&#45;11&#45;21</title>
<polygon fill="white" stroke="none" points="-4,4 -4,-1321 640.12,-1321 640.12,4 -4,4"/>
<!-- 08:40 -->
<g id="node1" class="node">
<title>08:40</title>
<text text-anchor="middle" x="27" y="-1295.45" font-family="Times,serif" font-size="14.00">08:40</text>
</g>
<!-- 09:30 -->
<g id="node2" class="node">
<title>09:30</title>
<text text-anchor="middle" x="27" y="-1203.95" font-family="Times,serif" font-size="14.00">09:30</text>
</g>
<!-- 08:40&#45;&gt;09:30 -->
<g id="edge1" class="edge">
<title>08:40&#45;&gt;09:30</title>
<path fill="none" stroke="black" d="M27,-1281.17C27,-1268.66 27,-1251.32 27,-1236.72"/>
<polygon fill="black" stroke="black" points="30.5,-1236.77 27,-1226.77 23.5,-1236.77 30.5,-1236.77"/>
<text text-anchor="middle" x="96.75" y="-1249.7" font-family="Times,serif" font-size="14.00">La vie c&#39;est dur wesh</text>
</g>
<!-- Réveil -->
<g id="node16" class="node">
<title>Réveil</title>
<polygon fill="none" stroke="black" points="146.62,-1317 89.38,-1317 89.38,-1281 146.62,-1281 146.62,-1317"/>
<text text-anchor="middle" x="118" y="-1295.45" font-family="Times,serif" font-size="14.00">Réveil</text>
</g>
<!-- 08:40&#45;&gt;Réveil -->
<g id="edge15" class="edge">
<title>08:40&#45;&gt;Réveil</title>
<path fill="none" stroke="black" d="M53.66,-1299C61.69,-1299 69.72,-1299 77.75,-1299"/>
<polygon fill="black" stroke="black" points="77.58,-1302.5 87.58,-1299 77.58,-1295.5 77.58,-1302.5"/>
</g>
<!-- 10:00 -->
<g id="node3" class="node">
<title>10:00</title>
<text text-anchor="middle" x="27" y="-1112.45" font-family="Times,serif" font-size="14.00">10:00</text>
</g>
<!-- 09:30&#45;&gt;10:00 -->
<g id="edge2" class="edge">
<title>09:30&#45;&gt;10:00</title>
<path fill="none" stroke="black" d="M27,-1189.67C27,-1177.16 27,-1159.82 27,-1145.22"/>
<polygon fill="black" stroke="black" points="30.5,-1145.27 27,-1135.27 23.5,-1145.27 30.5,-1145.27"/>
<text text-anchor="middle" x="68.62" y="-1158.2" font-family="Times,serif" font-size="14.00">Café/P&#39;tit dej</text>
</g>
<!-- Debout -->
<g id="node17" class="node">
<title>Debout</title>
<polygon fill="none" stroke="black" points="154.38,-1225.5 89.62,-1225.5 89.62,-1189.5 154.38,-1189.5 154.38,-1225.5"/>
<text text-anchor="middle" x="122" y="-1203.95" font-family="Times,serif" font-size="14.00">Debout</text>
</g>
<!-- 09:30&#45;&gt;Debout -->
<g id="edge16" class="edge">
<title>09:30&#45;&gt;Debout</title>
<path fill="none" stroke="black" d="M53.72,-1207.5C61.76,-1207.5 69.79,-1207.5 77.83,-1207.5"/>
<polygon fill="black" stroke="black" points="77.68,-1211 87.68,-1207.5 77.68,-1204 77.68,-1211"/>
</g>
<!-- 10:30 -->
<g id="node4" class="node">
<title>10:30</title>
<text text-anchor="middle" x="27" y="-1020.95" font-family="Times,serif" font-size="14.00">10:30</text>
</g>
<!-- 10:00&#45;&gt;10:30 -->
<g id="edge3" class="edge">
<title>10:00&#45;&gt;10:30</title>
<path fill="none" stroke="black" d="M27,-1098.17C27,-1085.66 27,-1068.32 27,-1053.72"/>
<polygon fill="black" stroke="black" points="30.5,-1053.77 27,-1043.77 23.5,-1053.77 30.5,-1053.77"/>
<text text-anchor="middle" x="276.38" y="-1066.7" font-family="Times,serif" font-size="14.00">Discussion BHC: Heures, Jira, méthode de planification et conception d&#39;app</text>
</g>
<!-- 11:00 -->
<g id="node5" class="node">
<title>11:00</title>
<text text-anchor="middle" x="27" y="-929.45" font-family="Times,serif" font-size="14.00">11:00</text>
</g>
<!-- 10:30&#45;&gt;11:00 -->
<g id="edge4" class="edge">
<title>10:30&#45;&gt;11:00</title>
<path fill="none" stroke="black" d="M27,-1006.67C27,-994.16 27,-976.82 27,-962.22"/>
<polygon fill="black" stroke="black" points="30.5,-962.27 27,-952.27 23.5,-962.27 30.5,-962.27"/>
<text text-anchor="middle" x="113.25" y="-975.2" font-family="Times,serif" font-size="14.00">Douche/brossage de dents</text>
</g>
<!-- 11:25 -->
<g id="node6" class="node">
<title>11:25</title>
<text text-anchor="middle" x="27" y="-837.95" font-family="Times,serif" font-size="14.00">11:25</text>
</g>
<!-- 11:00&#45;&gt;11:25 -->
<g id="edge5" class="edge">
<title>11:00&#45;&gt;11:25</title>
<path fill="none" stroke="black" d="M27,-915.17C27,-902.66 27,-885.32 27,-870.72"/>
<polygon fill="black" stroke="black" points="30.5,-870.77 27,-860.77 23.5,-870.77 30.5,-870.77"/>
<text text-anchor="middle" x="191.25" y="-883.7" font-family="Times,serif" font-size="14.00">Google: &quot;How to make a timeline with GraphViz&quot;</text>
</g>
<!-- 11:30 -->
<g id="node7" class="node">
<title>11:30</title>
<text text-anchor="middle" x="27" y="-746.45" font-family="Times,serif" font-size="14.00">11:30</text>
</g>
<!-- 11:25&#45;&gt;11:30 -->
<g id="edge6" class="edge">
<title>11:25&#45;&gt;11:30</title>
<path fill="none" stroke="black" d="M27,-823.67C27,-811.16 27,-793.82 27,-779.22"/>
<polygon fill="black" stroke="black" points="30.5,-779.27 27,-769.27 23.5,-779.27 30.5,-779.27"/>
<text text-anchor="middle" x="85.88" y="-792.2" font-family="Times,serif" font-size="14.00">Création timeline</text>
</g>
<!-- 11:50 -->
<g id="node8" class="node">
<title>11:50</title>
<text text-anchor="middle" x="27" y="-654.95" font-family="Times,serif" font-size="14.00">11:50</text>
</g>
<!-- 11:30&#45;&gt;11:50 -->
<g id="edge7" class="edge">
<title>11:30&#45;&gt;11:50</title>
<path fill="none" stroke="black" d="M27,-732.17C27,-719.66 27,-702.32 27,-687.72"/>
<polygon fill="black" stroke="black" points="30.5,-687.77 27,-677.77 23.5,-687.77 30.5,-687.77"/>
<text text-anchor="middle" x="55.12" y="-700.7" font-family="Times,serif" font-size="14.00">✓ Boulot</text>
</g>
<!-- 12:00 -->
<g id="node9" class="node">
<title>12:00</title>
<text text-anchor="middle" x="27" y="-563.45" font-family="Times,serif" font-size="14.00">12:00</text>
</g>
<!-- 11:50&#45;&gt;12:00 -->
<g id="edge8" class="edge">
<title>11:50&#45;&gt;12:00</title>
<path fill="none" stroke="black" d="M27,-640.67C27,-628.16 27,-610.82 27,-596.22"/>
<polygon fill="black" stroke="black" points="30.5,-596.27 27,-586.27 23.5,-596.27 30.5,-596.27"/>
<text text-anchor="middle" x="55.5" y="-609.2" font-family="Times,serif" font-size="14.00">Café/Jira</text>
</g>
<!-- 14:25 -->
<g id="node10" class="node">
<title>14:25</title>
<text text-anchor="middle" x="27" y="-471.95" font-family="Times,serif" font-size="14.00">14:25</text>
</g>
<!-- 12:00&#45;&gt;14:25 -->
<g id="edge9" class="edge">
<title>12:00&#45;&gt;14:25</title>
<path fill="none" stroke="black" d="M27,-549.17C27,-536.66 27,-519.32 27,-504.72"/>
<polygon fill="black" stroke="black" points="30.5,-504.77 27,-494.77 23.5,-504.77 30.5,-504.77"/>
<text text-anchor="middle" x="55.12" y="-517.7" font-family="Times,serif" font-size="14.00">✓ Boulot</text>
</g>
<!-- 14:30 -->
<g id="node11" class="node">
<title>14:30</title>
<text text-anchor="middle" x="27" y="-380.45" font-family="Times,serif" font-size="14.00">14:30</text>
</g>
<!-- 14:25&#45;&gt;14:30 -->
<g id="edge10" class="edge">
<title>14:25&#45;&gt;14:30</title>
<path fill="none" stroke="black" d="M27,-457.67C27,-445.16 27,-427.82 27,-413.22"/>
<polygon fill="black" stroke="black" points="30.5,-413.27 27,-403.27 23.5,-413.27 30.5,-413.27"/>
<text text-anchor="middle" x="96.75" y="-426.2" font-family="Times,serif" font-size="14.00">Café/Papouilles Lady</text>
</g>
<!-- 16:30 -->
<g id="node12" class="node">
<title>16:30</title>
<text text-anchor="middle" x="27" y="-288.95" font-family="Times,serif" font-size="14.00">16:30</text>
</g>
<!-- 14:30&#45;&gt;16:30 -->
<g id="edge11" class="edge">
<title>14:30&#45;&gt;16:30</title>
<path fill="none" stroke="black" d="M27,-366.17C27,-353.66 27,-336.32 27,-321.72"/>
<polygon fill="black" stroke="black" points="30.5,-321.77 27,-311.77 23.5,-321.77 30.5,-321.77"/>
<text text-anchor="middle" x="55.12" y="-334.7" font-family="Times,serif" font-size="14.00">✓ Boulot</text>
</g>
<!-- 17:05 -->
<g id="node13" class="node">
<title>17:05</title>
<text text-anchor="middle" x="27" y="-197.45" font-family="Times,serif" font-size="14.00">17:05</text>
</g>
<!-- 16:30&#45;&gt;17:05 -->
<g id="edge12" class="edge">
<title>16:30&#45;&gt;17:05</title>
<path fill="none" stroke="black" d="M27,-274.67C27,-262.16 27,-244.82 27,-230.22"/>
<polygon fill="black" stroke="black" points="30.5,-230.27 27,-220.27 23.5,-230.27 30.5,-230.27"/>
<text text-anchor="middle" x="90.38" y="-243.2" font-family="Times,serif" font-size="14.00">Pause chill/Discord</text>
</g>
<!-- 18:05 -->
<g id="node14" class="node">
<title>18:05</title>
<text text-anchor="middle" x="27" y="-105.95" font-family="Times,serif" font-size="14.00">18:05</text>
</g>
<!-- 17:05&#45;&gt;18:05 -->
<g id="edge13" class="edge">
<title>17:05&#45;&gt;18:05</title>
<path fill="none" stroke="black" d="M27,-183.17C27,-170.66 27,-153.32 27,-138.72"/>
<polygon fill="black" stroke="black" points="30.5,-138.77 27,-128.77 23.5,-138.77 30.5,-138.77"/>
<text text-anchor="middle" x="55.12" y="-151.7" font-family="Times,serif" font-size="14.00">✓ Boulot</text>
</g>
<!-- 22:40 -->
<g id="node15" class="node">
<title>22:40</title>
<text text-anchor="middle" x="27" y="-14.45" font-family="Times,serif" font-size="14.00">22:40</text>
</g>
<!-- 18:05&#45;&gt;22:40 -->
<g id="edge14" class="edge">
<title>18:05&#45;&gt;22:40</title>
<path fill="none" stroke="black" d="M27,-91.67C27,-79.16 27,-61.82 27,-47.22"/>
<polygon fill="black" stroke="black" points="30.5,-47.27 27,-37.27 23.5,-47.27 30.5,-47.27"/>
<text text-anchor="middle" x="117.38" y="-60.2" font-family="Times,serif" font-size="14.00">Install/test Stable Diffusion</text>
</g>
<!-- Aurel arrive dans ma chambre et met fin à mes espoirs de faire mes heures. 😭 -->
<g id="node18" class="node">
<title>Aurel arrive dans ma chambre et met fin à mes espoirs de faire mes heures. 😭</title>
<polygon fill="none" stroke="black" points="636.12,-127.5 89.88,-127.5 89.88,-91.5 636.12,-91.5 636.12,-127.5"/>
<text text-anchor="middle" x="363" y="-105.95" font-family="Times,serif" font-size="14.00">Aurel arrive dans ma chambre et met fin à mes espoirs de faire mes heures. 😭</text>
</g>
<!-- 18:05&#45;&gt;Aurel arrive dans ma chambre et met fin à mes espoirs de faire mes heures. 😭 -->
<g id="edge17" class="edge">
<title>18:05&#45;&gt;Aurel arrive dans ma chambre et met fin à mes espoirs de faire mes heures. 😭</title>
<path fill="none" stroke="black" d="M53.91,-109.5C61.98,-109.5 70.05,-109.5 78.12,-109.5"/>
<polygon fill="black" stroke="black" points="78.01,-113 88.01,-109.5 78.01,-106 78.01,-113"/>
</g>
</g>
</svg>
