<?xml version="1.0" encoding="UTF-8" standalone="no"?>
<!DOCTYPE svg PUBLIC "-//W3C//DTD SVG 1.1//EN"
 "http://www.w3.org/Graphics/SVG/1.1/DTD/svg11.dtd">
<!-- Generated by graphviz version 9.0.0 (0)
 -->
<!-- Title: 2023&#45;11&#45;21 Pages: 1 -->
<svg width="610pt" height="620pt"
 viewBox="0.00 0.00 610.12 620.00" xmlns="http://www.w3.org/2000/svg" xmlns:xlink="http://www.w3.org/1999/xlink">
<g id="graph0" class="graph" transform="scale(1 1) rotate(0) translate(4 616)">
<title>2023&#45;11&#45;21</title>
<polygon fill="white" stroke="none" points="-4,4 -4,-616 606.12,-616 606.12,4 -4,4"/>
<!-- 08:40 -->
<g id="node1" class="node">
<title>08:40</title>
<text text-anchor="middle" x="29.38" y="-590.45" font-family="Times,serif" font-size="14.00">08:40</text>
</g>
<!-- 09:30 -->
<g id="node2" class="node">
<title>09:30</title>
<text text-anchor="middle" x="29.38" y="-518.45" font-family="Times,serif" font-size="14.00">09:30</text>
</g>
<!-- 08:40&#45;&gt;09:30 -->
<g id="edge1" class="edge">
<title>08:40&#45;&gt;09:30</title>
<path fill="none" stroke="black" d="M29.38,-576.05C29.38,-568.57 29.38,-559.58 29.38,-551.14"/>
<polygon fill="black" stroke="black" points="32.88,-551.3 29.38,-541.3 25.88,-551.3 32.88,-551.3"/>
</g>
<!-- 10:00 -->
<g id="node3" class="node">
<title>10:00</title>
<text text-anchor="middle" x="29.38" y="-446.45" font-family="Times,serif" font-size="14.00">10:00</text>
</g>
<!-- 09:30&#45;&gt;10:00 -->
<g id="edge2" class="edge">
<title>09:30&#45;&gt;10:00</title>
<path fill="none" stroke="black" d="M29.38,-504.05C29.38,-496.57 29.38,-487.58 29.38,-479.14"/>
<polygon fill="black" stroke="black" points="32.88,-479.3 29.38,-469.3 25.88,-479.3 32.88,-479.3"/>
</g>
<!-- 10:30 -->
<g id="node4" class="node">
<title>10:30</title>
<text text-anchor="middle" x="29.38" y="-374.45" font-family="Times,serif" font-size="14.00">10:30</text>
</g>
<!-- 10:00&#45;&gt;10:30 -->
<g id="edge3" class="edge">
<title>10:00&#45;&gt;10:30</title>
<path fill="none" stroke="black" d="M29.38,-432.05C29.38,-424.57 29.38,-415.58 29.38,-407.14"/>
<polygon fill="black" stroke="black" points="32.88,-407.3 29.38,-397.3 25.88,-407.3 32.88,-407.3"/>
</g>
<!-- 11:00 -->
<g id="node5" class="node">
<title>11:00</title>
<text text-anchor="middle" x="29.38" y="-302.45" font-family="Times,serif" font-size="14.00">11:00</text>
</g>
<!-- 10:30&#45;&gt;11:00 -->
<g id="edge4" class="edge">
<title>10:30&#45;&gt;11:00</title>
<path fill="none" stroke="black" d="M29.38,-360.05C29.38,-352.57 29.38,-343.58 29.38,-335.14"/>
<polygon fill="black" stroke="black" points="32.88,-335.3 29.38,-325.3 25.88,-335.3 32.88,-335.3"/>
</g>
<!-- 11:25 -->
<g id="node6" class="node">
<title>11:25</title>
<text text-anchor="middle" x="29.38" y="-230.45" font-family="Times,serif" font-size="14.00">11:25</text>
</g>
<!-- 11:00&#45;&gt;11:25 -->
<g id="edge5" class="edge">
<title>11:00&#45;&gt;11:25</title>
<path fill="none" stroke="black" d="M29.38,-288.05C29.38,-280.57 29.38,-271.58 29.38,-263.14"/>
<polygon fill="black" stroke="black" points="32.88,-263.3 29.38,-253.3 25.88,-263.3 32.88,-263.3"/>
</g>
<!-- 11:30 -->
<g id="node7" class="node">
<title>11:30</title>
<text text-anchor="middle" x="29.38" y="-158.45" font-family="Times,serif" font-size="14.00">11:30</text>
</g>
<!-- 11:25&#45;&gt;11:30 -->
<g id="edge6" class="edge">
<title>11:25&#45;&gt;11:30</title>
<path fill="none" stroke="black" d="M29.38,-216.05C29.38,-208.57 29.38,-199.58 29.38,-191.14"/>
<polygon fill="black" stroke="black" points="32.88,-191.3 29.38,-181.3 25.88,-191.3 32.88,-191.3"/>
</g>
<!-- 11:50 -->
<g id="node8" class="node">
<title>11:50</title>
<text text-anchor="middle" x="29.38" y="-86.45" font-family="Times,serif" font-size="14.00">11:50</text>
</g>
<!-- 11:30&#45;&gt;11:50 -->
<g id="edge7" class="edge">
<title>11:30&#45;&gt;11:50</title>
<path fill="none" stroke="black" d="M29.38,-144.05C29.38,-136.57 29.38,-127.58 29.38,-119.14"/>
<polygon fill="black" stroke="black" points="32.88,-119.3 29.38,-109.3 25.88,-119.3 32.88,-119.3"/>
</g>
<!-- future -->
<g id="node9" class="node">
<title>future</title>
<text text-anchor="middle" x="29.38" y="-14.45" font-family="Times,serif" font-size="14.00">future</text>
</g>
<!-- 11:50&#45;&gt;future -->
<g id="edge8" class="edge">
<title>11:50&#45;&gt;future</title>
<path fill="none" stroke="black" d="M29.38,-72.05C29.38,-64.57 29.38,-55.58 29.38,-47.14"/>
<polygon fill="black" stroke="black" points="32.88,-47.3 29.38,-37.3 25.88,-47.3 32.88,-47.3"/>
</g>
<!-- La vie c&#39;est dur wesh -->
<g id="node10" class="node">
<title>La vie c&#39;est dur wesh</title>
<polygon fill="none" stroke="black" points="230.12,-612 74.62,-612 74.62,-576 230.12,-576 230.12,-612"/>
<text text-anchor="middle" x="152.38" y="-590.45" font-family="Times,serif" font-size="14.00">La vie c&#39;est dur wesh</text>
</g>
<!-- Debout -->
<g id="node11" class="node">
<title>Debout</title>
<polygon fill="none" stroke="black" points="138.75,-540 74,-540 74,-504 138.75,-504 138.75,-540"/>
<text text-anchor="middle" x="106.38" y="-518.45" font-family="Times,serif" font-size="14.00">Debout</text>
</g>
<!-- P&#39;tit dej/café -->
<g id="node12" class="node">
<title>P&#39;tit dej/café</title>
<polygon fill="none" stroke="black" points="172.25,-468 74.5,-468 74.5,-432 172.25,-432 172.25,-468"/>
<text text-anchor="middle" x="123.38" y="-446.45" font-family="Times,serif" font-size="14.00">P&#39;tit dej/café</text>
</g>
<!-- Discussion BHC: Heures, Jira, méthode de planification et conception d&#39;app -->
<g id="node13" class="node">
<title>Discussion BHC: Heures, Jira, méthode de planification et conception d&#39;app</title>
<polygon fill="none" stroke="black" points="588.75,-396 74,-396 74,-360 588.75,-360 588.75,-396"/>
<text text-anchor="middle" x="331.38" y="-374.45" font-family="Times,serif" font-size="14.00">Discussion BHC: Heures, Jira, méthode de planification et conception d&#39;app</text>
</g>
<!-- Douche/brossage de dents -->
<g id="node14" class="node">
<title>Douche/brossage de dents</title>
<polygon fill="none" stroke="black" points="262.62,-324 74.12,-324 74.12,-288 262.62,-288 262.62,-324"/>
<text text-anchor="middle" x="168.38" y="-302.45" font-family="Times,serif" font-size="14.00">Douche/brossage de dents</text>
</g>
<!-- Google: &quot;How to make a timeline with GraphViz&quot; -->
<g id="node15" class="node">
<title>Google: &quot;How to make a timeline with GraphViz&quot;</title>
<polygon fill="none" stroke="black" points="418.62,-252 74.12,-252 74.12,-216 418.62,-216 418.62,-252"/>
<text text-anchor="middle" x="246.38" y="-230.45" font-family="Times,serif" font-size="14.00">Google: &quot;How to make a timeline with GraphViz&quot;</text>
</g>
<!-- Création première timeline (les suivantes se feront en un temps négligeable) -->
<g id="node16" class="node">
<title>Création première timeline (les suivantes se feront en un temps négligeable)</title>
<polygon fill="none" stroke="black" points="602.12,-180 74.62,-180 74.62,-144 602.12,-144 602.12,-180"/>
<text text-anchor="middle" x="338.38" y="-158.45" font-family="Times,serif" font-size="14.00">Création première timeline (les suivantes se feront en un temps négligeable)</text>
</g>
<!-- ✓ Boulot -->
<g id="node17" class="node">
<title>✓ Boulot</title>
<polygon fill="none" stroke="black" points="146.5,-108 74.25,-108 74.25,-72 146.5,-72 146.5,-108"/>
<text text-anchor="middle" x="110.38" y="-86.45" font-family="Times,serif" font-size="14.00">✓ Boulot</text>
</g>
</g>
</svg>
